# xmcd
#
# Track frame offsets:
#	150
#	21391
#	37384
#	58007
#	78026
#	99401
#	120807
#	130508
#	148552
#	163732
#	177555
#	187281
#	209320
#	229215
#	248953
#	264464
#
# Disc length: 3697 seconds
#
# Revision: 1
# Processed by: cddbd v1.5.2PL0 Copyright (c) Steve Scherf et al.
# Submitted via: audiograbber 1.83.01
#
DISCID=e30e6f10
DTITLE=Klaus Brandl - November is my spring
DYEAR=2011
DGENRE=Blues
TTITLE0=Chesmu
TTITLE1=Devil Down
TTITLE2=November Is My Spring
TTITLE3=Life Breaks Everyone
TTITLE4=Monkey
TTITLE5=Bad News
TTITLE6=Twilight Limbo
TTITLE7=Big Black Crows
TTITLE8=Why Don't You Resist
TTITLE9=Run With The Big Dog
TTITLE10=Kusz Walk
TTITLE11=Richard's Style
TTITLE12=Closed Down Bar
TTITLE13=Waltzing The Blues
TTITLE14=The Hardest Blues
TTITLE15=Under Frozen Lake
EXTD=
EXTT0=
EXTT1=
EXTT2=
EXTT3=
EXTT4=
EXTT5=
EXTT6=
EXTT7=
EXTT8=
EXTT9=
EXTT10=
EXTT11=
EXTT12=
EXTT13=
EXTT14=
EXTT15=
PLAYORDER=
